#!OML:ASF E:\motion texture\Top Level 1\Subject 1\Session 1\male.ASF
:FULLY-SPECIFIED
:DEGREES
609
root -18.8025 17.6133 3.904 535.219 -95.5522 -529.91
lowerback -4.50036 -4.44462 -4.05366
upperback -3.72784 -5.86908 2.83391
thorax -0.63564 -2.88297 4.93265
lowerneck -19.3091 -2.94399 -5.97083
upperneck 17.6752 -3.53444 5.29468
head 8.9218 -1.51353 2.3198
rclavicle 1.01877e-014 -1.19271e-014
rhumerus -55.4221 6.51886 -84.0619
rradius 56.3793
rwrist -8.89684
rhand -14.4052 -9.72878
rfingers 7.12502
rthumb 11.7384 -39.3799
lclavicle 1.01877e-014 -1.19271e-014
lhumerus 4.18854 -16.1615 81.1863
lradius 53.2307
lwrist -0.388383
lhand -12.9928 4.10728
lfingers 7.12502
lthumb 13.1002 33.6758
rfemur -42.4923 -7.71907 21.2506
rtibia 46.3452
rfoot -171.539 176.198
rtoes 12.6743
lfemur 12.2515 -5.5654 -21.3306
ltibia 22.0234
lfoot 717.143 -373.616
ltoes -23.2506
610
root -19.0133 17.5846 3.87413 539.684 -95.6417 -534.196
lowerback -4.79301 -4.3642 -3.77082
upperback -3.89077 -5.77043 2.9666
thorax -0.666195 -2.83714 4.90337
lowerneck -19.3165 -3.02896 -6.02427
upperneck 17.9026 -3.6374 5.24261
head 9.00772 -1.57255 2.29814
rclavicle -2.29596e-014 -4.77083e-015
rhumerus -54.3239 6.4622 -84.7227
rradius 56.8129
rwrist -8.94404
rhand -14.6613 -9.63016
rfingers 7.12502
rthumb 11.4914 -39.2952
lclavicle -2.29596e-014 -4.77083e-015
lhumerus 2.06916 -16.8922 82.0677
lradius 53.0857
lwrist -0.460893
lhand -12.9369 4.26564
lfingers 7.12502
lthumb 13.1541 33.8307
rfemur -40.2958 -7.3938 21.787
rtibia 44.6291
rfoot -175.642 176.725
rtoes 13.1786
lfemur 11.3889 -5.43266 -20.3799
ltibia 23.9139
lfoot 719.259 -374.165
ltoes -23.2031
611
root -19.2165 17.5594 3.84587 544.69 -95.6395 -539.08
lowerback -4.96213 -4.22889 -3.3739
upperback -4.02625 -5.60676 3.10483
thorax -0.753246 -2.75983 4.82937
lowerneck -19.3916 -3.11245 -6.07737
upperneck 18.1303 -3.73524 5.19795
head 9.10594 -1.6271 2.27912
rclavicle 3.42904e-015 7.15625e-015
rhumerus -53.0795 6.46594 -85.4279
rradius 57.2811
rwrist -8.93599
rhand -14.8972 -9.57703
rfingers 7.12502
rthumb 11.2639 -39.2546
lclavicle 3.42904e-015 7.15625e-015
lhumerus -0.0974073 -17.5978 82.9737
lradius 52.9062
lwrist -0.582975
lhand -12.8348 4.40529
lfingers 7.12502
lthumb 13.2525 33.964
rfemur -38.3544 -6.96715 22.4698
rtibia 43.0387
rfoot -179.006 176.891
rtoes 14.9058
lfemur 10.2382 -5.21878 -19.339
ltibia 26.22
lfoot 721.901 -374.585
ltoes -22.6625
612
root -19.4105 17.5378 3.81955 550.511 -95.5386 -544.844
lowerback -4.99687 -4.03756 -2.8558
upperback -4.12201 -5.37527 3.24665
thorax -0.8895 -2.6504 4.70395
lowerneck -19.5417 -3.188 -6.11431
upperneck 18.3423 -3.81878 5.14676
head 9.21112 -1.67299 2.25638
rclavicle -3.68746e-014 2.62396e-014
rhumerus -51.6687 6.56742 -86.1882
rradius 57.7968
rwrist -8.86846
rhand -15.0915 -9.54916
rfingers 7.12502
rthumb 11.0765 -39.2369
lclavicle -3.68746e-014 2.62396e-014
lhumerus -2.29706 -18.2599 83.8833
lradius 52.6876
lwrist -0.732584
lhand -12.7021 4.52543
lfingers 7.12502
lthumb 13.3803 34.0758
rfemur -36.6681 -6.40405 23.2809
rtibia 41.6195
rfoot -181.571 176.793
rtoes 16.9872
lfemur 8.813 -4.91195 -18.2275
ltibia 28.9207
lfoot 725.053 -374.807
ltoes -21.5521
613
root -19.5946 17.52 3.79554 557.344 -95.3698 -551.708
lowerback -4.88548 -3.79993 -2.22903
upperback -4.15614 -5.08561 3.38597
thorax -1.05507 -2.51424 4.52517
lowerneck -19.7684 -3.25259 -6.10888
upperneck 18.5006 -3.88398 5.06704
head 9.30906 -1.70851 2.21824
rclavicle 4.32357e-015 8.74653e-015
rhumerus -50.0604 6.80568 -87.0113
rradius 58.364
rwrist -8.77334
rhand -15.2644 -9.58081
rfingers 7.12502
rthumb 10.9098 -39.2774
lclavicle 4.32357e-015 8.74653e-015
lhumerus -4.51979 -18.8583 84.7748
lradius 52.4493
lwrist -0.863757
lhand -12.5151 4.62363
lfingers 7.12502
lthumb 13.5606 34.162
rfemur -35.1939 -5.70514 24.1764
rtibia 40.4155
rfoot -183.448 176.493
rtoes 18.7193
lfemur 7.15528 -4.53166 -17.0853
ltibia 31.9901
lfoot 728.622 -374.815
ltoes -19.9293
614
root -19.7683 17.5055 3.77349 565.622 -95.1652 -560.089
lowerback -4.65159 -3.52397 -1.50107
upperback -4.12304 -4.7451 3.5259
thorax -1.22716 -2.35549 4.29596
lowerneck -20.0512 -3.2964 -6.0627
upperneck 18.5708 -3.91956 4.97239
head 9.38348 -1.72719 2.17122
rclavicle -2.84759e-014 6.36111e-015
rhumerus -48.2536 7.2202 -87.8966
rradius 58.9999
rwrist -8.67208
rhand -15.3747 -9.67725
rfingers 7.12502
rthumb 10.8033 -39.3794
lclavicle -2.84759e-014 6.36111e-015
lhumerus -6.75071 -19.3706 85.636
lradius 52.18
lwrist -0.972939
lhand -12.3339 4.69406
lfingers 7.12502
lthumb 13.7353 34.2207
rfemur -33.9167 -4.86198 25.1519
rtibia 39.4843
rfoot -184.817 176.121
rtoes 19.84
lfemur 5.27457 -4.07498 -15.9238
ltibia 35.41
lfoot 732.4 -374.682
ltoes -18.0438
615
root -19.9332 17.4936 3.75361 575.263 -94.9967 -569.919
lowerback -4.31311 -3.23064 -0.707773
upperback -4.01287 -4.37773 3.66262
thorax -1.37902 -2.18569 4.0278
lowerneck -20.3467 -3.31436 -5.97328
upperneck 18.5204 -3.92026 4.85893
head 9.41451 -1.72753 2.1146
rclavicle 2.5842e-015 4.77083e-015
rhumerus -46.2593 7.84553 -88.8289
rradius 59.7182
rwrist -8.59347
rhand -15.4279 -9.81871
rfingers 7.12502
rthumb 10.752 -39.5235
lclavicle 2.5842e-015 4.77083e-015
lhumerus -8.99813 -19.7767 86.4616
lradius 51.8928
lwrist -1.0465
lhand -12.1532 4.73695
lfingers 7.12502
lthumb 13.9094 34.2517
rfemur -32.7644 -3.93154 26.1647
rtibia 38.8343
rfoot -185.834 175.752
rtoes 20.4202
lfemur 3.24598 -3.56899 -14.7858
ltibia 39.1151
lfoot 736.024 -374.58
ltoes -16.2856
616
root -20.0904 17.4834 3.7359 585.923 -94.9389 -580.84
lowerback -3.90213 -2.93551 0.128833
upperback -3.82986 -4.00236 3.79698
thorax -1.49288 -2.01351 3.7303
lowerneck -20.6442 -3.30711 -5.84463
upperneck 18.3656 -3.88913 4.72947
head 9.40616 -1.71148 2.04996
rclavicle 1.68967e-015 8.74653e-015
rhumerus -44.1011 8.69681 -89.7784
rradius 60.524
rwrist -8.55729
rhand -15.3634 -10.0002
rfingers 7.12502
rthumb 10.8142 -39.7017
lclavicle 1.68967e-015 8.74653e-015
lhumerus -11.2526 -20.0607 87.2568
lradius 51.5708
lwrist -1.10356
lhand -11.9899 4.75833
lfingers 7.12502
lthumb 14.0667 34.2623
rfemur -31.6867 -2.9556 27.1896
rtibia 38.4073
rfoot -186.613 175.445
rtoes 20.5245
lfemur 1.04684 -3.04109 -13.6919
ltibia 43.1677
lfoot 739.136 -374.669
ltoes -14.544
617
root -20.2416 17.4746 3.71988 596.774 -95.0619 -592.02
lowerback -3.43606 -2.65512 0.994432
upperback -3.58916 -3.64041 3.939
thorax -1.57127 -1.84876 3.42064
lowerneck -20.8833 -3.2743 -5.6905
upperneck 18.0997 -3.82758 4.58957
head 9.34598 -1.68132 1.98188
rclavicle 2.90226e-014 -3.49861e-014
rhumerus -41.82 9.7852 -90.7073
rradius 61.4185
rwrist -8.59596
rhand -15.2675 -10.1846
rfingers 7.12502
rthumb 10.9068 -39.8813
lclavicle 2.90226e-014 -3.49861e-014
lhumerus -13.5217 -20.2134 88.0359
lradius 51.195
lwrist -1.16423
lhand -11.8651 4.75537
lfingers 7.12502
lthumb 14.187 34.2509
rfemur -30.621 -1.97947 28.2261
rtibia 38.1144
rfoot -187.242 175.213
rtoes 20.3555
lfemur -1.30592 -2.5068 -12.625
ltibia 47.5601
lfoot 741.412 -374.969
ltoes -12.9432
618
root -20.3881 17.4671 3.70508 606.785 -95.3932 -602.408
lowerback -2.94498 -2.39384 1.87992
upperback -3.30483 -3.29844 4.09775
thorax -1.61079 -1.69407 3.11252
lowerneck -21.048 -3.22391 -5.54299
upperneck 17.7504 -3.74686 4.47005
head 9.24327 -1.64163 1.9251
rclavicle -1.39149e-014 -9.54166e-015
rhumerus -39.4416 11.1032 -91.5669
rradius 62.395
rwrist -8.71535
rhand -15.2059 -10.3525
rfingers 7.12502
rthumb 10.9662 -40.0461
lclavicle -1.39149e-014 -9.54166e-015
lhumerus -15.7809 -20.2344 88.8098
lradius 50.7331
lwrist -1.27307
lhand -11.8173 4.71958
lfingers 7.12502
lthumb 14.2331 34.2119
rfemur -29.5333 -1.04748 29.2886
rtibia 37.8739
rfoot -187.776 175.055
rtoes 19.9931
lfemur -3.81665 -1.94876 -11.5579
ltibia 52.2608
lfoot 742.641 -375.412
ltoes -11.6005
